<svg width="900" height="140" viewBox="0 0 900 140" xmlns="http://www.w3.org/2000/svg">
  <defs>
    <linearGradient id="bg6" x1="0%" y1="0%" x2="100%" y2="0%">
      <stop offset="0%" style="stop-color:#0d1117"/>
      <stop offset="100%" style="stop-color:#161b22"/>
    </linearGradient>
    <linearGradient id="accent6" x1="0%" y1="0%" x2="100%" y2="0%">
      <stop offset="0%" style="stop-color:#2ea44f"/>
      <stop offset="100%" style="stop-color:#3fb950"/>
    </linearGradient>
  </defs>
  <rect width="900" height="140" fill="url(#bg6)" rx="10"/>
  <rect x="0" y="0" width="4" height="140" fill="url(#accent6)" rx="2"/>

  <!-- Globe with meridians -->
  <circle cx="60" cy="66" r="26" fill="none" stroke="#2ea44f" stroke-width="1.5" opacity="0.7"/>
  <ellipse cx="60" cy="66" rx="13" ry="26" fill="none" stroke="#2ea44f" stroke-width="1" opacity="0.4"/>
  <line x1="34" y1="66" x2="86" y2="66" stroke="#2ea44f" stroke-width="1" opacity="0.4"/>
  <line x1="34" y1="52" x2="86" y2="52" stroke="#2ea44f" stroke-width="0.5" opacity="0.25"/>
  <line x1="34" y1="80" x2="86" y2="80" stroke="#2ea44f" stroke-width="0.5" opacity="0.25"/>
  <!-- Location pin -->
  <circle cx="60" cy="52" r="5" fill="#2ea44f" opacity="0.9"/>

  <!-- Content -->
  <text x="106" y="42" font-family="'Segoe UI',system-ui,sans-serif" font-size="11" fill="#3fb950" font-weight="600" letter-spacing="2">AVAILABILITY &amp; TIMEZONE</text>
  <text x="106" y="70" font-family="'Segoe UI',system-ui,sans-serif" font-size="22" font-weight="700" fill="#f0f6fc">Remote-First · Immediate Start</text>
  <text x="106" y="96" font-family="'Segoe UI',system-ui,sans-serif" font-size="13" fill="#8b949e">Flexible overlap · EU (CET) and US (EST) hours · Arabic &amp; English</text>

  <!-- Availability indicators -->
  <circle cx="116" cy="118" r="4" fill="#2ea44f"/>
  <text x="126" y="122" font-family="'Segoe UI',system-ui,sans-serif" font-size="11" fill="#3fb950" font-weight="600">AVAILABLE NOW</text>

  <circle cx="246" cy="118" r="4" fill="#3fb950" opacity="0.6"/>
  <text x="256" y="122" font-family="'Segoe UI',system-ui,sans-serif" font-size="11" fill="#8b949e">ASYNC FRIENDLY</text>

  <circle cx="376" cy="118" r="4" fill="#3fb950" opacity="0.6"/>
  <text x="386" y="122" font-family="'Segoe UI',system-ui,sans-serif" font-size="11" fill="#8b949e">INTERNATIONAL TEAMS</text>

  <!-- Right deco: timezone arcs -->
  <path d="M 760 40 A 60 60 0 0 1 820 100" fill="none" stroke="#2ea44f" stroke-width="0.5" opacity="0.15"/>
  <path d="M 748 40 A 72 72 0 0 1 820 112" fill="none" stroke="#2ea44f" stroke-width="0.5" opacity="0.1"/>
  <path d="M 736 40 A 84 84 0 0 1 820 124" fill="none" stroke="#2ea44f" stroke-width="0.5" opacity="0.07"/>
</svg>
